<svg width="50" height="50" viewBox="0 0 7 7" fill="none" xmlns="http://www.w3.org/2000/svg">
<g clip-path="url(#clip0_9_4336)">
<circle opacity="0.100028" cx="3.14052" cy="3.69728" r="3.12758" fill="#473BF0"/>
<path d="M3.40766 4.46723C3.3038 4.46723 3.21312 4.45487 3.13563 4.43014C3.05815 4.40376 2.99303 4.36914 2.94027 4.32628C2.88751 4.28341 2.84712 4.23642 2.81909 4.18532C2.79272 4.13421 2.7787 4.08145 2.77705 4.02705C2.77705 4.01221 2.782 4.00067 2.79189 3.99242C2.80178 3.98418 2.81415 3.98006 2.82899 3.98006H2.95016C2.965 3.98006 2.97819 3.98336 2.98973 3.98995C3.00127 3.99655 3.01116 4.01056 3.0194 4.03199C3.03589 4.09134 3.06392 4.13751 3.10348 4.17048C3.1447 4.20345 3.19169 4.22653 3.24444 4.23972C3.29885 4.25126 3.35325 4.25703 3.40766 4.25703C3.52142 4.25703 3.61374 4.22983 3.68463 4.17542C3.75552 4.12102 3.79097 4.04106 3.79097 3.93555C3.79097 3.82838 3.75882 3.75172 3.69452 3.70556C3.63023 3.6594 3.5412 3.63632 3.42744 3.63632H3.19251C3.17603 3.63632 3.16201 3.63137 3.15047 3.62148C3.14058 3.61159 3.13563 3.59757 3.13563 3.57944V3.51267C3.13563 3.49783 3.13811 3.48547 3.14305 3.47557C3.14965 3.46403 3.15624 3.45414 3.16284 3.4459L3.64259 2.92163H2.91307C2.89658 2.92163 2.88257 2.91668 2.87103 2.90679C2.86113 2.8969 2.85619 2.88289 2.85619 2.86475V2.77078C2.85619 2.75264 2.86113 2.73863 2.87103 2.72874C2.88257 2.7172 2.89658 2.71143 2.91307 2.71143H3.89978C3.91792 2.71143 3.93193 2.7172 3.94182 2.72874C3.95336 2.73863 3.95913 2.75264 3.95913 2.77078V2.85981C3.95913 2.87135 3.95583 2.88206 3.94924 2.89195C3.94429 2.9002 3.93852 2.90844 3.93193 2.91668L3.45465 3.44837L3.49421 3.45084C3.60302 3.45414 3.69782 3.47393 3.7786 3.5102C3.86104 3.54647 3.92451 3.60087 3.96902 3.67341C4.01519 3.7443 4.03827 3.83415 4.03827 3.94297C4.03827 4.05342 4.01106 4.14822 3.95666 4.22736C3.90225 4.30484 3.82724 4.36419 3.73162 4.40541C3.636 4.44663 3.52801 4.46723 3.40766 4.46723Z" fill="#473BF0"/>
</g>
<defs>
<clipPath id="clip0_9_4336">
<rect width="6.25515" height="6.25515" fill="white" transform="translate(0.0129395 0.569702)"/>
</clipPath>
</defs>
</svg>
