<svg width="50" height="50" viewBox="0 0 7 7" fill="none" xmlns="http://www.w3.org/2000/svg">
<g clip-path="url(#clip0_9_4324)">
<circle opacity="0.100028" cx="3.14027" cy="3.87544" r="3.12758" fill="#473BF0"/>
<path d="M3.31389 4.62061C3.2974 4.62061 3.28339 4.61566 3.27185 4.60577C3.26195 4.59423 3.25701 4.58021 3.25701 4.56373V3.17887L2.8465 3.49541C2.83331 3.5053 2.81929 3.50942 2.80446 3.50777C2.78962 3.50612 2.77725 3.4987 2.76736 3.48551L2.70306 3.40391C2.69317 3.38907 2.68905 3.37423 2.6907 3.35939C2.694 3.34455 2.70224 3.33219 2.71543 3.3223L3.25454 2.90684C3.26608 2.8986 3.27679 2.89365 3.28668 2.892C3.29658 2.89035 3.30729 2.88953 3.31883 2.88953H3.44495C3.46144 2.88953 3.47463 2.8953 3.48452 2.90684C3.49441 2.91673 3.49936 2.92992 3.49936 2.94641V4.56373C3.49936 4.58021 3.49441 4.59423 3.48452 4.60577C3.47463 4.61566 3.46144 4.62061 3.44495 4.62061H3.31389Z" fill="#473BF0"/>
</g>
<defs>
<clipPath id="clip0_9_4324">
<rect width="6.25515" height="6.25515" fill="white" transform="translate(0.0126953 0.747864)"/>
</clipPath>
</defs>
</svg>
