<svg width="50" height="50" viewBox="0 0 7 7" fill="none" xmlns="http://www.w3.org/2000/svg">
<g clip-path="url(#clip0_9_4330)">
<circle opacity="0.100028" cx="3.14052" cy="3.78627" r="3.12758" fill="#473BF0"/>
<path d="M2.93843 4.53143C2.92194 4.53143 2.90793 4.52649 2.89639 4.5166C2.8865 4.50505 2.88155 4.49104 2.88155 4.47455V4.39542C2.88155 4.38058 2.88567 4.3641 2.89391 4.34596C2.90216 4.32783 2.91864 4.30804 2.94337 4.28661L3.46764 3.76234C3.55172 3.69145 3.61767 3.63127 3.66548 3.58181C3.71494 3.53071 3.74956 3.48207 3.76935 3.43591C3.79078 3.38975 3.80149 3.34194 3.80149 3.29248C3.80149 3.1985 3.77512 3.12431 3.72236 3.06991C3.6696 3.01386 3.59129 2.98583 3.48743 2.98583C3.42148 2.98583 3.3646 2.99984 3.31679 3.02787C3.26898 3.05425 3.23106 3.09134 3.20304 3.13915C3.17666 3.18531 3.15935 3.23807 3.1511 3.29742C3.14781 3.31885 3.13874 3.33369 3.1239 3.34194C3.11071 3.35018 3.09835 3.3543 3.08681 3.3543H2.95821C2.94337 3.3543 2.93101 3.35018 2.92112 3.34194C2.91123 3.33204 2.90628 3.3205 2.90628 3.30731C2.90793 3.24467 2.92112 3.18202 2.94585 3.11937C2.97058 3.05507 3.00685 2.99737 3.05466 2.94626C3.10412 2.89515 3.16429 2.85394 3.23518 2.82261C3.30772 2.78964 3.39181 2.77315 3.48743 2.77315C3.61767 2.77315 3.72401 2.79706 3.80644 2.84487C3.89052 2.89103 3.95234 2.95286 3.99191 3.03034C4.03148 3.10783 4.05126 3.19273 4.05126 3.28506C4.05126 3.3576 4.0389 3.42437 4.01417 3.48537C3.98944 3.54472 3.95317 3.60325 3.90536 3.66095C3.8592 3.717 3.80149 3.7747 3.73225 3.83406L3.25744 4.31628H4.02901C4.04714 4.31628 4.06116 4.32123 4.07105 4.33112C4.08259 4.34101 4.08836 4.35503 4.08836 4.37316V4.47455C4.08836 4.49104 4.08259 4.50505 4.07105 4.5166C4.06116 4.52649 4.04714 4.53143 4.02901 4.53143H2.93843Z" fill="#473BF0"/>
</g>
<defs>
<clipPath id="clip0_9_4330">
<rect width="6.25515" height="6.25515" fill="white" transform="translate(0.0129395 0.658691)"/>
</clipPath>
</defs>
</svg>
