<svg width="50" height="50" viewBox="0 0 5 5" fill="none" xmlns="http://www.w3.org/2000/svg">
<circle cx="2.66642" cy="2.33775" r="2.1093" fill="#68D585"/>
<path d="M2.49161 2.70137V2.63591C2.48863 2.55586 2.50431 2.47617 2.53754 2.40256C2.58009 2.32774 2.63825 2.26195 2.70847 2.20922C2.791 2.14902 2.86457 2.07848 2.92719 1.99953C2.95862 1.9481 2.97431 1.88934 2.97247 1.82989C2.97693 1.75743 2.94613 1.68704 2.88892 1.63895C2.81978 1.59003 2.73453 1.56616 2.64852 1.57163C2.58232 1.57153 2.51636 1.57906 2.45208 1.59406C2.376 1.61356 2.30242 1.641 2.2327 1.6759L2.15747 1.51226C2.31251 1.4336 2.48553 1.39239 2.66127 1.39227C2.82381 1.39227 2.95006 1.43025 3.04004 1.50622C3.13306 1.58889 3.18253 1.70663 3.175 1.82745C3.17601 1.88034 3.16761 1.933 3.15014 1.98323C3.13298 2.02908 3.10823 2.07205 3.07683 2.1105C3.0129 2.18031 2.943 2.24498 2.86785 2.30384C2.80175 2.35265 2.74428 2.41119 2.69763 2.47724C2.66736 2.53424 2.65309 2.5977 2.65618 2.66148V2.70149L2.49161 2.70137Z" fill="white"/>
<circle cx="2.59371" cy="3.1379" r="0.145469" fill="white"/>
</svg>
