<svg width="50" height="50" viewBox="0 0 5 7" fill="none" xmlns="http://www.w3.org/2000/svg">
<path fill-rule="evenodd" clip-rule="evenodd" d="M3.53277 0.908203H0.932519C0.606299 0.9086 0.341943 1.17738 0.341553 1.50905V5.83516C0.341943 6.16684 0.606299 6.43562 0.932519 6.43601H3.53277C3.85899 6.43562 4.12335 6.16684 4.12374 5.83516V1.50905C4.12335 1.17738 3.85899 0.9086 3.53277 0.908203ZM3.88744 5.47465C3.88744 5.54102 3.83452 5.59482 3.76925 5.59482H0.696222C0.630946 5.59482 0.578029 5.54102 0.578029 5.47465V1.62922C0.578029 1.56285 0.630946 1.50905 0.696222 1.50905H3.76925C3.83452 1.50905 3.88744 1.56285 3.88744 1.62922V5.47465Z" fill="#68D585"/>
</svg>
