<svg width="50" height="50" viewBox="0 0 6 6" fill="none" xmlns="http://www.w3.org/2000/svg">
<path d="M2.75416 0.0537109C2.68395 0.0537109 2.63715 0.100514 2.63715 0.170718V0.872763C2.63715 0.942967 2.68395 0.98977 2.75416 0.98977C2.82436 0.98977 2.87117 0.942967 2.87117 0.872763V0.287726C4.16995 0.346229 5.21131 1.4227 5.21131 2.74488C5.21131 4.10217 4.11144 5.20204 2.75416 5.20204C1.39687 5.20204 0.297003 4.10217 0.297003 2.74488C0.297003 2.67468 0.2502 2.62787 0.179996 2.62787C0.109791 2.62787 0.0629883 2.67468 0.0629883 2.74488C0.0629883 4.23088 1.26816 5.43605 2.75416 5.43605C4.24015 5.43605 5.44533 4.23088 5.44533 2.74488C5.44533 1.25889 4.24015 0.0537109 2.75416 0.0537109Z" fill="#D5D7DD"/>
<path d="M2.28153 3.08012C2.38638 3.18441 2.53784 3.25393 2.6893 3.25393C2.84075 3.25393 2.99221 3.19599 3.09707 3.08012C3.31842 2.85996 3.31842 2.48917 3.09707 2.25743C2.91066 2.07203 1.43104 1.19141 1.25628 1.08712C1.20968 1.06395 1.15143 1.06395 1.11648 1.1103C1.08153 1.14506 1.06988 1.20299 1.09318 1.24934C1.20968 1.42315 2.09512 2.89473 2.28153 3.08012Z" fill="#68D585"/>
</svg>
